<svg xmlns="http://www.w3.org/2000/svg" height="313.643" width="311.381"><defs><linearGradient id="b" spreadMethod="pad" gradientTransform="matrix(-105.88938 0 0 105.88938 129.328 61.828)" gradientUnits="userSpaceOnUse" y2="0" x2="1" y1="0" x1="0"><stop offset="0" stop-color="#22a3dd"/><stop offset=".121" stop-color="#22a3dd"/><stop offset="1" stop-color="#0ff"/></linearGradient><linearGradient id="d" spreadMethod="pad" gradientTransform="matrix(105.88937 0 0 -105.88937 104.145 171.644)" gradientUnits="userSpaceOnUse" y2="0" x2="1" y1="0" x1="0"><stop offset="0" stop-color="#22a3dd"/><stop offset=".121" stop-color="#22a3dd"/><stop offset=".996" stop-color="#0ff"/><stop offset="1" stop-color="#0ff"/></linearGradient><linearGradient id="f" spreadMethod="pad" gradientTransform="matrix(126.2801 0 0 -126.2801 0 124.734)" gradientUnits="userSpaceOnUse" y2="0" x2="1" y1="0" x1="0"><stop offset="0" stop-color="#21a6de"/><stop offset="1" stop-color="#0ff"/><stop offset="1" stop-color="#0ff"/></linearGradient><linearGradient id="h" spreadMethod="pad" gradientTransform="matrix(-126.24039 0 0 126.24039 233.536 110.57)" gradientUnits="userSpaceOnUse" y2="0" x2="1" y1="0" x1="0"><stop offset="0" stop-color="#21a6de"/><stop offset="1" stop-color="#0ff"/><stop offset="1" stop-color="#0ff"/></linearGradient><clipPath id="a"><path d="M41.19 103.655c-1.667-2.123-2.682-3.453-2.926-3.841-2.703-4.315-18.279-21.824-14.125-43.955.611-3.098 1.609-6.286 3.082-9.541 2.689-5.927 4.064-7.173 6.981-10.23C57.316 11.842 90.392-2.181 126.459.278c-12.228.594-19.224 9.544-19.161 22.001.197 2.944.646 6.248 1.4 9.927.62 2.5 1.622 6.375 2.84 11.012 5.227 17.71 17.391 53.644 17.391 53.644s2.483 6.76-4.94 6.76c-21.544 0-24.867.033-44.824.033-19.957 0-5.957 20.001-5.957 20.001z"/></clipPath><clipPath id="c"><path d="M114.858 235.232a119.634 119.634 0 01-7.844-.277c12.228-.595 19.225-9.544 19.162-22.002-.198-2.943-.647-6.248-1.401-9.926-.62-2.5-1.623-6.376-2.839-11.013-5.228-17.709-17.393-53.643-17.393-53.643s-2.482-6.76 4.941-6.76c19.028 0 28.049-.011 46.574-.011s2.738-21.485 2.4-23.448c-.34-1.971 36.508 26.88 36.75 27.267 2.704 4.314 18.279 21.823 14.126 43.954-.611 3.098-1.609 6.286-3.083 9.541-2.689 5.928-4.062 7.173-6.979 10.23-21.304 22.347-51.071 36.008-83.84 36.088z"/></clipPath><clipPath id="e"><path d="M96.935 233.368C41.907 224.036 0 176.161 0 118.475 0 89.121 10.874 62.32 28.784 41.827c-.072.114-.14.227-.211.341 9.439-11.289 20.871-20.561 33.568-27.491-5.211 3.993-8.977 8.359-11.65 12.858-9.286 15.631-5.37 32.86-2.944 41.546.779 1.145.972 12.696 37.853 76.228 37.275 64.21 40.864 68.364 40.864 68.364l-.072-.038.088.11c-.639 10.709-6.042 20.685-19.292 21.045h-.044c-2.799 0-7.06-.922-10.009-1.422"/></clipPath><clipPath id="g"><path d="M182.976 207.868c9.299-15.646 5.378-32.894 2.948-41.589-.78-1.146-.973-12.708-37.905-76.305-37.326-64.276-40.693-68.263-40.723-68.3.17-10.712 5.838-20.912 19.105-21.273 2.802-.009 7.099.922 10.067 1.424 55.104 9.341 97.068 57.265 97.068 115.01 0 29.384-10.888 56.212-28.823 76.725.072-.113.14-.227.211-.34-9.451 11.3-20.9 20.582-33.613 27.518 5.219-3.996 8.989-8.367 11.665-12.87"/></clipPath></defs><g clip-path="url(#a)" transform="matrix(1.33333 0 0 -1.33333 0 313.643)"><path d="M41.19 103.655c-1.667-2.123-2.682-3.453-2.926-3.841-2.703-4.315-18.279-21.824-14.125-43.955.611-3.098 1.609-6.286 3.082-9.541 2.689-5.927 4.064-7.173 6.981-10.23C57.316 11.842 90.392-2.181 126.459.278c-12.228.594-19.224 9.544-19.161 22.001.197 2.944.646 6.248 1.4 9.927.62 2.5 1.622 6.375 2.84 11.012 5.227 17.71 17.391 53.644 17.391 53.644s2.483 6.76-4.94 6.76c-21.544 0-24.867.033-44.824.033-19.957 0-5.957 20.001-5.957 20.001z" fill="url(#b)"/></g><g clip-path="url(#c)" transform="matrix(1.33333 0 0 -1.33333 0 313.643)"><path d="M114.858 235.232a119.634 119.634 0 01-7.844-.277c12.228-.595 19.225-9.544 19.162-22.002-.198-2.943-.647-6.248-1.401-9.926-.62-2.5-1.623-6.376-2.839-11.013-5.228-17.709-17.393-53.643-17.393-53.643s-2.482-6.76 4.941-6.76c19.028 0 28.049-.011 46.574-.011s2.738-21.485 2.4-23.448c-.34-1.971 36.508 26.88 36.75 27.267 2.704 4.314 18.279 21.823 14.126 43.954-.611 3.098-1.609 6.286-3.083 9.541-2.689 5.928-4.062 7.173-6.979 10.23-21.304 22.347-51.071 36.008-83.84 36.088z" fill="url(#d)"/></g><g clip-path="url(#e)" transform="matrix(1.33333 0 0 -1.33333 0 313.643)"><path d="M96.935 233.368C41.907 224.036 0 176.161 0 118.475 0 89.121 10.874 62.32 28.784 41.827c-.072.114-.14.227-.211.341 9.439-11.289 20.871-20.561 33.568-27.491-5.211 3.993-8.977 8.359-11.65 12.858-9.286 15.631-5.37 32.86-2.944 41.546.779 1.145.972 12.696 37.853 76.228 37.275 64.21 40.864 68.364 40.864 68.364l-.072-.038.088.11c-.639 10.709-6.042 20.685-19.292 21.045h-.044c-2.799 0-7.06-.922-10.009-1.422" fill="url(#f)"/></g><g clip-path="url(#g)" transform="matrix(1.33333 0 0 -1.33333 0 313.643)"><path d="M182.976 207.868c9.299-15.646 5.378-32.894 2.948-41.589-.78-1.146-.973-12.708-37.905-76.305-37.326-64.276-40.693-68.263-40.723-68.3.17-10.712 5.838-20.912 19.105-21.273 2.802-.009 7.099.922 10.067 1.424 55.104 9.341 97.068 57.265 97.068 115.01 0 29.384-10.888 56.212-28.823 76.725.072-.113.14-.227.211-.34-9.451 11.3-20.9 20.582-33.613 27.518 5.219-3.996 8.989-8.367 11.665-12.87" fill="url(#h)"/></g></svg>